<mxfile host="app.diagrams.net" modified="2021-08-25T13:06:12.239Z" agent="5.0 (Windows NT 10.0; Win64; x64) AppleWebKit/537.36 (KHTML, like Gecko) Chrome/92.0.4515.159 Safari/537.36" etag="rx49ULJa4iBdbIHIKcE_" version="14.9.9" type="github" pages="2">
  <diagram id="V2M2JKiZ2GsldVHTJeFV" name="SimpleSearch">
    <mxGraphModel dx="2602" dy="1745" grid="1" gridSize="10" guides="1" tooltips="1" connect="1" arrows="1" fold="1" page="1" pageScale="1" pageWidth="827" pageHeight="1169" math="0" shadow="0">
      <root>
        <mxCell id="0" />
        <mxCell id="1" parent="0" />
        <mxCell id="Odf808U_Sn1sBOXG4N02-5" value="&lt;div style=&quot;color: rgb(187, 187, 187); background-color: rgb(0, 43, 54); font-family: consolas, &amp;quot;courier new&amp;quot;, monospace; font-size: 11px; line-height: 27px;&quot;&gt;&lt;div style=&quot;font-size: 11px;&quot;&gt;&lt;span style=&quot;color: rgb(38, 139, 210); font-size: 11px;&quot;&gt;api&lt;/span&gt;&amp;nbsp;&lt;span style=&quot;color: rgb(133, 153, 0); font-size: 11px;&quot;&gt;=&lt;/span&gt;&amp;nbsp;&lt;span style=&quot;color: rgb(203, 75, 22); font-size: 11px;&quot;&gt;tw&lt;/span&gt;.&lt;span style=&quot;color: rgb(203, 75, 22); font-size: 11px;&quot;&gt;API&lt;/span&gt;(&lt;span style=&quot;color: rgb(38, 139, 210); font-size: 11px;&quot;&gt;auth&lt;/span&gt;,&amp;nbsp;wait_on_rate_limit&lt;span style=&quot;color: rgb(133, 153, 0); font-size: 11px;&quot;&gt;=&lt;/span&gt;&lt;span style=&quot;color: rgb(181, 137, 0); font-size: 11px;&quot;&gt;True&lt;/span&gt;)&lt;/div&gt;&lt;/div&gt;" style="text;html=1;strokeColor=none;fillColor=none;align=center;verticalAlign=middle;whiteSpace=wrap;rounded=0;fontSize=11;" vertex="1" parent="1">
          <mxGeometry x="-1640" y="-1070" width="260" height="40" as="geometry" />
        </mxCell>
        <mxCell id="Odf808U_Sn1sBOXG4N02-6" value="&lt;div style=&quot;color: rgb(187, 187, 187); background-color: rgb(0, 43, 54); font-family: consolas, &amp;quot;courier new&amp;quot;, monospace; font-size: 11px; line-height: 27px;&quot;&gt;&lt;div style=&quot;font-size: 11px;&quot;&gt;&lt;span style=&quot;color: rgb(38, 139, 210); font-size: 11px;&quot;&gt;auth&lt;/span&gt;.&lt;span style=&quot;color: rgb(38, 139, 210); font-size: 11px;&quot;&gt;set_access_token&lt;/span&gt;(&lt;span style=&quot;color: rgb(38, 139, 210); font-size: 11px;&quot;&gt;keyim&lt;/span&gt;.&lt;span style=&quot;color: rgb(38, 139, 210); font-size: 11px;&quot;&gt;accessToken&lt;/span&gt;,&amp;nbsp;&lt;span style=&quot;color: rgb(38, 139, 210); font-size: 11px;&quot;&gt;keyim&lt;/span&gt;.&lt;span style=&quot;color: rgb(38, 139, 210); font-size: 11px;&quot;&gt;accessTokenSecret&lt;/span&gt;)&lt;/div&gt;&lt;div style=&quot;font-size: 11px;&quot;&gt;&lt;/div&gt;&lt;/div&gt;" style="text;html=1;strokeColor=none;fillColor=none;align=center;verticalAlign=middle;whiteSpace=wrap;rounded=0;fontSize=11;" vertex="1" parent="1">
          <mxGeometry x="-1641" y="-1090" width="400" height="20" as="geometry" />
        </mxCell>
        <mxCell id="Odf808U_Sn1sBOXG4N02-7" value="&lt;div style=&quot;color: rgb(187, 187, 187); background-color: rgb(0, 43, 54); font-family: consolas, &amp;quot;courier new&amp;quot;, monospace; font-size: 11px; line-height: 27px;&quot;&gt;&lt;span style=&quot;color: rgb(38, 139, 210); font-size: 11px;&quot;&gt;auth&lt;/span&gt;&amp;nbsp;&lt;span style=&quot;color: rgb(133, 153, 0); font-size: 11px;&quot;&gt;=&lt;/span&gt;&amp;nbsp;&lt;span style=&quot;color: rgb(203, 75, 22); font-size: 11px;&quot;&gt;tw&lt;/span&gt;.&lt;span style=&quot;color: rgb(203, 75, 22); font-size: 11px;&quot;&gt;OAuthHandler&lt;/span&gt;(&lt;span style=&quot;color: rgb(38, 139, 210); font-size: 11px;&quot;&gt;keyim&lt;/span&gt;.&lt;span style=&quot;color: rgb(38, 139, 210); font-size: 11px;&quot;&gt;consumerKey&lt;/span&gt;,&amp;nbsp;&lt;span style=&quot;color: rgb(38, 139, 210); font-size: 11px;&quot;&gt;keyim&lt;/span&gt;.&lt;span style=&quot;color: rgb(38, 139, 210); font-size: 11px;&quot;&gt;consumerSecretKey&lt;/span&gt;)&lt;/div&gt;" style="text;html=1;strokeColor=none;fillColor=none;align=center;verticalAlign=middle;whiteSpace=wrap;rounded=0;fontSize=11;" vertex="1" parent="1">
          <mxGeometry x="-1640" y="-1120" width="410" height="20" as="geometry" />
        </mxCell>
        <mxCell id="Odf808U_Sn1sBOXG4N02-8" value="&lt;div style=&quot;color: rgb(187, 187, 187); background-color: rgb(0, 43, 54); font-family: consolas, &amp;quot;courier new&amp;quot;, monospace; line-height: 27px; font-size: 11px;&quot;&gt;&lt;div style=&quot;font-size: 11px;&quot;&gt;&lt;span style=&quot;color: rgb(38, 139, 210); font-size: 11px;&quot;&gt;keyim&lt;/span&gt;&amp;nbsp;&lt;span style=&quot;color: rgb(133, 153, 0); font-size: 11px;&quot;&gt;=&lt;/span&gt;&amp;nbsp;&lt;span style=&quot;color: rgb(203, 75, 22); font-size: 11px;&quot;&gt;apiKeyAccess&lt;/span&gt;.&lt;span style=&quot;color: rgb(203, 75, 22); font-size: 11px;&quot;&gt;bilgiler&lt;/span&gt;()&lt;/div&gt;&lt;div style=&quot;font-size: 11px;&quot;&gt;&lt;/div&gt;&lt;/div&gt;" style="text;html=1;strokeColor=none;fillColor=none;align=center;verticalAlign=middle;whiteSpace=wrap;rounded=0;fontSize=11;" vertex="1" parent="1">
          <mxGeometry x="-1640" y="-1150" width="200" height="20" as="geometry" />
        </mxCell>
        <mxCell id="Odf808U_Sn1sBOXG4N02-10" value="&lt;h1&gt;&lt;div style=&quot;color: rgb(187 , 187 , 187) ; background-color: rgb(0 , 43 , 54) ; font-family: &amp;#34;consolas&amp;#34; , &amp;#34;courier new&amp;#34; , monospace ; font-weight: normal ; font-size: 20px ; line-height: 27px&quot;&gt;&lt;span style=&quot;color: #93a1a1 ; font-weight: bold&quot;&gt;def&lt;/span&gt;&amp;nbsp;&lt;span style=&quot;color: #268bd2&quot;&gt;SimpleSearch&lt;/span&gt;():&lt;/div&gt;&lt;/h1&gt;&lt;p&gt;&lt;br&gt;&lt;/p&gt;" style="text;html=1;strokeColor=none;fillColor=none;spacing=5;spacingTop=-20;whiteSpace=wrap;overflow=hidden;rounded=0;fontSize=11;verticalAlign=middle;" vertex="1" parent="1">
          <mxGeometry x="-1640" y="-980" width="240" height="30" as="geometry" />
        </mxCell>
        <mxCell id="Odf808U_Sn1sBOXG4N02-11" value="&lt;div style=&quot;color: rgb(187, 187, 187); background-color: rgb(0, 43, 54); font-family: consolas, &amp;quot;courier new&amp;quot;, monospace; font-weight: normal; font-size: 20px; line-height: 27px;&quot;&gt;&lt;div&gt;&lt;span style=&quot;color: #268bd2&quot;&gt;search_term&lt;/span&gt;&lt;span style=&quot;color: #bbbbbb&quot;&gt;&amp;nbsp;&lt;/span&gt;&lt;span style=&quot;color: #859900&quot;&gt;=&lt;/span&gt;&lt;span style=&quot;color: #bbbbbb&quot;&gt;&amp;nbsp;&lt;/span&gt;&lt;span style=&quot;color: #2aa198&quot;&gt;&quot;#climate+change&amp;nbsp;-filter:retweets&quot;&lt;/span&gt;&lt;/div&gt;&lt;/div&gt;" style="text;whiteSpace=wrap;html=1;fontSize=11;" vertex="1" parent="1">
          <mxGeometry x="-1641" y="-920" width="550" height="40" as="geometry" />
        </mxCell>
        <mxCell id="Odf808U_Sn1sBOXG4N02-16" value="&lt;div style=&quot;color: rgb(187 , 187 , 187) ; font-family: &amp;#34;consolas&amp;#34; , &amp;#34;courier new&amp;#34; , monospace ; font-size: 20px ; line-height: 27px&quot;&gt;&lt;div&gt;&lt;span style=&quot;background-color: rgb(0 , 43 , 54) ; color: rgb(38 , 139 , 210)&quot;&gt;tweets&lt;/span&gt;&lt;span style=&quot;background-color: rgb(0 , 43 , 54)&quot;&gt;&amp;nbsp;&lt;/span&gt;&lt;span style=&quot;background-color: rgb(0 , 43 , 54) ; color: rgb(133 , 153 , 0)&quot;&gt;=&lt;/span&gt;&lt;span style=&quot;background-color: rgb(0 , 43 , 54)&quot;&gt;&amp;nbsp;&lt;/span&gt;&lt;span style=&quot;background-color: rgb(0 , 43 , 54) ; color: rgb(203 , 75 , 22)&quot;&gt;tw&lt;/span&gt;&lt;span style=&quot;background-color: rgb(0 , 43 , 54)&quot;&gt;.&lt;/span&gt;&lt;span style=&quot;background-color: rgb(0 , 43 , 54) ; color: rgb(203 , 75 , 22)&quot;&gt;Cursor&lt;/span&gt;&lt;span style=&quot;background-color: rgb(0 , 43 , 54)&quot;&gt;(&lt;/span&gt;&lt;span style=&quot;color: rgb(38 , 139 , 210) ; background-color: rgb(0 , 255 , 0)&quot;&gt;api&lt;/span&gt;&lt;span style=&quot;background-color: rgb(0 , 43 , 54)&quot;&gt;.&lt;/span&gt;&lt;span style=&quot;background-color: rgb(0 , 43 , 54) ; color: rgb(38 , 139 , 210)&quot;&gt;search&lt;/span&gt;&lt;span style=&quot;background-color: rgb(0 , 43 , 54)&quot;&gt;,q&lt;/span&gt;&lt;span style=&quot;background-color: rgb(0 , 43 , 54) ; color: rgb(133 , 153 , 0)&quot;&gt;=&lt;/span&gt;&lt;span style=&quot;color: rgb(38 , 139 , 210) ; background-color: rgb(255 , 128 , 0)&quot;&gt;search_term&lt;/span&gt;&lt;span style=&quot;background-color: rgb(0 , 43 , 54)&quot;&gt;,lanng&lt;/span&gt;&lt;span style=&quot;background-color: rgb(0 , 43 , 54) ; color: rgb(133 , 153 , 0)&quot;&gt;=&lt;/span&gt;&lt;span style=&quot;background-color: rgb(0 , 43 , 54) ; color: rgb(42 , 161 , 152)&quot;&gt;&quot;en&quot;&lt;/span&gt;&lt;span style=&quot;background-color: rgb(0 , 43 , 54)&quot;&gt;,since&lt;/span&gt;&lt;span style=&quot;background-color: rgb(0 , 43 , 54) ; color: rgb(133 , 153 , 0)&quot;&gt;=&lt;/span&gt;&lt;span style=&quot;background-color: rgb(0 , 43 , 54) ; color: rgb(42 , 161 , 152)&quot;&gt;&#39;2018-11-01&#39;&lt;/span&gt;&lt;span style=&quot;background-color: rgb(0 , 43 , 54)&quot;&gt;).&lt;/span&gt;&lt;span style=&quot;background-color: rgb(0 , 43 , 54) ; color: rgb(38 , 139 , 210)&quot;&gt;items&lt;/span&gt;&lt;span style=&quot;background-color: rgb(0 , 43 , 54)&quot;&gt;(&lt;/span&gt;&lt;span style=&quot;background-color: rgb(0 , 43 , 54) ; color: rgb(211 , 54 , 130)&quot;&gt;1000&lt;/span&gt;&lt;span style=&quot;background-color: rgb(0 , 43 , 54)&quot;&gt;)&lt;/span&gt;&lt;/div&gt;&lt;/div&gt;" style="text;html=1;strokeColor=none;fillColor=none;align=center;verticalAlign=middle;whiteSpace=wrap;rounded=0;fontSize=11;" vertex="1" parent="1">
          <mxGeometry x="-1640" y="-840" width="950" height="40" as="geometry" />
        </mxCell>
        <mxCell id="Odf808U_Sn1sBOXG4N02-17" value="&lt;div style=&quot;color: rgb(187, 187, 187); background-color: rgb(0, 43, 54); font-family: consolas, &amp;quot;courier new&amp;quot;, monospace; font-weight: normal; font-size: 11px; line-height: 27px;&quot;&gt;&lt;div style=&quot;font-size: 11px;&quot;&gt;&lt;span style=&quot;color: rgb(133, 153, 0); font-size: 11px;&quot;&gt;import&lt;/span&gt;&lt;span style=&quot;color: rgb(187, 187, 187); font-size: 11px;&quot;&gt;&amp;nbsp;&lt;/span&gt;&lt;span style=&quot;color: rgb(203, 75, 22); font-size: 11px;&quot;&gt;tweepy&lt;/span&gt;&lt;span style=&quot;color: rgb(187, 187, 187); font-size: 11px;&quot;&gt;&amp;nbsp;&lt;/span&gt;&lt;span style=&quot;color: rgb(133, 153, 0); font-size: 11px;&quot;&gt;as&lt;/span&gt;&lt;span style=&quot;color: rgb(187, 187, 187); font-size: 11px;&quot;&gt;&amp;nbsp;&lt;/span&gt;&lt;span style=&quot;color: rgb(203, 75, 22); font-size: 11px;&quot;&gt;tw&lt;/span&gt;&lt;/div&gt;&lt;/div&gt;" style="text;whiteSpace=wrap;html=1;fontSize=11;fillColor=#a20025;strokeColor=#6F0000;fontColor=#ffffff;" vertex="1" parent="1">
          <mxGeometry x="-1170" y="-1150" width="130" height="40" as="geometry" />
        </mxCell>
        <mxCell id="Odf808U_Sn1sBOXG4N02-22" value="" style="endArrow=classic;html=1;fontSize=11;entryX=0.25;entryY=1;entryDx=0;entryDy=0;" edge="1" parent="1" source="Odf808U_Sn1sBOXG4N02-24" target="Odf808U_Sn1sBOXG4N02-16">
          <mxGeometry width="50" height="50" relative="1" as="geometry">
            <mxPoint x="-1630" y="-980" as="sourcePoint" />
            <mxPoint x="-1500" y="-760" as="targetPoint" />
          </mxGeometry>
        </mxCell>
        <mxCell id="Odf808U_Sn1sBOXG4N02-23" value="" style="endArrow=classic;html=1;fontSize=11;exitX=0.455;exitY=0.05;exitDx=0;exitDy=0;entryX=0.423;entryY=1.1;entryDx=0;entryDy=0;entryPerimeter=0;exitPerimeter=0;" edge="1" parent="1" source="Odf808U_Sn1sBOXG4N02-29" target="Odf808U_Sn1sBOXG4N02-16">
          <mxGeometry width="50" height="50" relative="1" as="geometry">
            <mxPoint x="-1380" y="-930" as="sourcePoint" />
            <mxPoint x="-1330" y="-980" as="targetPoint" />
          </mxGeometry>
        </mxCell>
        <mxCell id="Odf808U_Sn1sBOXG4N02-24" value="&lt;div style=&quot;color: rgb(187, 187, 187); background-color: rgb(0, 43, 54); font-family: consolas, &amp;quot;courier new&amp;quot;, monospace; font-size: 7px; line-height: 27px;&quot;&gt;&lt;div style=&quot;font-size: 7px;&quot;&gt;&lt;span style=&quot;color: rgb(38, 139, 210); font-size: 7px;&quot;&gt;api&lt;/span&gt;&amp;nbsp;&lt;span style=&quot;color: rgb(133, 153, 0); font-size: 7px;&quot;&gt;=&lt;/span&gt;&amp;nbsp;&lt;span style=&quot;color: rgb(203, 75, 22); font-size: 7px;&quot;&gt;tw&lt;/span&gt;.&lt;span style=&quot;color: rgb(203, 75, 22); font-size: 7px;&quot;&gt;API&lt;/span&gt;(&lt;span style=&quot;color: rgb(38, 139, 210); font-size: 7px;&quot;&gt;auth&lt;/span&gt;,&amp;nbsp;wait_on_rate_limit&lt;span style=&quot;color: rgb(133, 153, 0); font-size: 7px;&quot;&gt;=&lt;/span&gt;&lt;span style=&quot;color: rgb(181, 137, 0); font-size: 7px;&quot;&gt;True&lt;/span&gt;)&lt;/div&gt;&lt;/div&gt;" style="text;html=1;strokeColor=#005700;fillColor=#008a00;align=center;verticalAlign=middle;whiteSpace=wrap;rounded=0;fontSize=7;fontColor=#ffffff;" vertex="1" parent="1">
          <mxGeometry x="-1490" y="-760" width="180" height="40" as="geometry" />
        </mxCell>
        <mxCell id="Odf808U_Sn1sBOXG4N02-25" value="&lt;div style=&quot;color: rgb(187, 187, 187); background-color: rgb(0, 43, 54); font-family: consolas, &amp;quot;courier new&amp;quot;, monospace; font-weight: normal; font-size: 7px; line-height: 27px;&quot;&gt;&lt;div style=&quot;font-size: 7px;&quot;&gt;&lt;span style=&quot;color: rgb(133, 153, 0); font-size: 7px;&quot;&gt;import&lt;/span&gt;&lt;span style=&quot;color: rgb(187, 187, 187); font-size: 7px;&quot;&gt;&amp;nbsp;&lt;/span&gt;&lt;span style=&quot;color: rgb(203, 75, 22); font-size: 7px;&quot;&gt;tweepy&lt;/span&gt;&lt;span style=&quot;color: rgb(187, 187, 187); font-size: 7px;&quot;&gt;&amp;nbsp;&lt;/span&gt;&lt;span style=&quot;color: rgb(133, 153, 0); font-size: 7px;&quot;&gt;as&lt;/span&gt;&lt;span style=&quot;color: rgb(187, 187, 187); font-size: 7px;&quot;&gt;&amp;nbsp;&lt;/span&gt;&lt;span style=&quot;color: rgb(203, 75, 22); font-size: 7px;&quot;&gt;tw&lt;/span&gt;&lt;/div&gt;&lt;/div&gt;" style="text;whiteSpace=wrap;html=1;fontSize=7;fillColor=#a20025;strokeColor=#6F0000;fontColor=#ffffff;" vertex="1" parent="1">
          <mxGeometry x="-1630" y="-760" width="80" height="40" as="geometry" />
        </mxCell>
        <mxCell id="Odf808U_Sn1sBOXG4N02-26" value="" style="endArrow=classic;html=1;fontSize=7;exitX=0.5;exitY=0;exitDx=0;exitDy=0;" edge="1" parent="1" source="Odf808U_Sn1sBOXG4N02-25">
          <mxGeometry width="50" height="50" relative="1" as="geometry">
            <mxPoint x="-1340" y="-930" as="sourcePoint" />
            <mxPoint x="-1530" y="-800" as="targetPoint" />
          </mxGeometry>
        </mxCell>
        <mxCell id="Odf808U_Sn1sBOXG4N02-27" value="&lt;div style=&quot;color: rgb(187, 187, 187); background-color: rgb(0, 43, 54); font-family: consolas, &amp;quot;courier new&amp;quot;, monospace; font-weight: normal; font-size: 7px; line-height: 27px;&quot;&gt;&lt;div style=&quot;font-size: 7px;&quot;&gt;&lt;span style=&quot;color: rgb(133, 153, 0); font-size: 7px;&quot;&gt;import&lt;/span&gt;&lt;span style=&quot;color: rgb(187, 187, 187); font-size: 7px;&quot;&gt;&amp;nbsp;&lt;/span&gt;&lt;span style=&quot;color: rgb(203, 75, 22); font-size: 7px;&quot;&gt;tweepy&lt;/span&gt;&lt;span style=&quot;color: rgb(187, 187, 187); font-size: 7px;&quot;&gt;&amp;nbsp;&lt;/span&gt;&lt;span style=&quot;color: rgb(133, 153, 0); font-size: 7px;&quot;&gt;as&lt;/span&gt;&lt;span style=&quot;color: rgb(187, 187, 187); font-size: 7px;&quot;&gt;&amp;nbsp;&lt;/span&gt;&lt;span style=&quot;color: rgb(203, 75, 22); font-size: 7px;&quot;&gt;tw&lt;/span&gt;&lt;/div&gt;&lt;/div&gt;" style="text;whiteSpace=wrap;html=1;fontSize=7;fillColor=#a20025;strokeColor=#6F0000;fontColor=#ffffff;" vertex="1" parent="1">
          <mxGeometry x="-1560" y="-1030" width="80" height="40" as="geometry" />
        </mxCell>
        <mxCell id="Odf808U_Sn1sBOXG4N02-28" value="" style="endArrow=classic;html=1;fontSize=7;exitX=0;exitY=0.5;exitDx=0;exitDy=0;" edge="1" parent="1" source="Odf808U_Sn1sBOXG4N02-27">
          <mxGeometry width="50" height="50" relative="1" as="geometry">
            <mxPoint x="-1340" y="-930" as="sourcePoint" />
            <mxPoint x="-1601" y="-1040" as="targetPoint" />
          </mxGeometry>
        </mxCell>
        <mxCell id="Odf808U_Sn1sBOXG4N02-29" value="&lt;div style=&quot;color: rgb(187, 187, 187); background-color: rgb(0, 43, 54); font-family: consolas, &amp;quot;courier new&amp;quot;, monospace; font-weight: normal; font-size: 7px; line-height: 27px;&quot;&gt;&lt;div style=&quot;font-size: 7px;&quot;&gt;&lt;span style=&quot;color: rgb(38, 139, 210); font-size: 7px;&quot;&gt;search_term&lt;/span&gt;&lt;span style=&quot;color: rgb(187, 187, 187); font-size: 7px;&quot;&gt;&amp;nbsp;&lt;/span&gt;&lt;span style=&quot;color: rgb(133, 153, 0); font-size: 7px;&quot;&gt;=&lt;/span&gt;&lt;span style=&quot;color: rgb(187, 187, 187); font-size: 7px;&quot;&gt;&amp;nbsp;&lt;/span&gt;&lt;span style=&quot;color: rgb(42, 161, 152); font-size: 7px;&quot;&gt;&quot;#climate+change&amp;nbsp;-filter:retweets&quot;&lt;/span&gt;&lt;/div&gt;&lt;/div&gt;" style="text;whiteSpace=wrap;html=1;fontSize=7;fillColor=#fa6800;strokeColor=#C73500;fontColor=#000000;" vertex="1" parent="1">
          <mxGeometry x="-1300" y="-760" width="200" height="40" as="geometry" />
        </mxCell>
        <mxCell id="Odf808U_Sn1sBOXG4N02-30" value="&lt;div style=&quot;color: rgb(187, 187, 187); background-color: rgb(0, 43, 54); font-family: consolas, &amp;quot;courier new&amp;quot;, monospace; font-weight: normal; font-size: 17px; line-height: 27px;&quot;&gt;&lt;div style=&quot;font-size: 17px;&quot;&gt;&lt;span style=&quot;color: rgb(38, 139, 210); font-size: 17px;&quot;&gt;all_tweets&lt;/span&gt;&lt;span style=&quot;color: rgb(187, 187, 187); font-size: 17px;&quot;&gt;&amp;nbsp;&lt;/span&gt;&lt;span style=&quot;color: rgb(133, 153, 0); font-size: 17px;&quot;&gt;=&lt;/span&gt;&lt;span style=&quot;color: rgb(187, 187, 187); font-size: 17px;&quot;&gt;&amp;nbsp;[&lt;/span&gt;&lt;span style=&quot;color: rgb(38, 139, 210); font-size: 17px;&quot;&gt;tweet&lt;/span&gt;&lt;span style=&quot;color: rgb(187, 187, 187); font-size: 17px;&quot;&gt;.text&amp;nbsp;&lt;/span&gt;&lt;span style=&quot;color: rgb(133, 153, 0); font-size: 17px;&quot;&gt;for&lt;/span&gt;&lt;span style=&quot;color: rgb(187, 187, 187); font-size: 17px;&quot;&gt;&amp;nbsp;&lt;/span&gt;&lt;span style=&quot;color: rgb(38, 139, 210); font-size: 17px;&quot;&gt;tweet&lt;/span&gt;&lt;span style=&quot;color: rgb(187, 187, 187); font-size: 17px;&quot;&gt;&amp;nbsp;&lt;/span&gt;&lt;span style=&quot;color: rgb(133, 153, 0); font-size: 17px;&quot;&gt;in&lt;/span&gt;&lt;span style=&quot;color: rgb(187, 187, 187); font-size: 17px;&quot;&gt;&amp;nbsp;&lt;/span&gt;&lt;span style=&quot;color: rgb(38, 139, 210); font-size: 17px;&quot;&gt;tweets&lt;/span&gt;&lt;span style=&quot;color: rgb(187, 187, 187); font-size: 17px;&quot;&gt;]&lt;/span&gt;&lt;/div&gt;&lt;/div&gt;" style="text;whiteSpace=wrap;html=1;fontSize=17;fontColor=#CC6600;" vertex="1" parent="1">
          <mxGeometry x="-1630" y="-620" width="290" height="40" as="geometry" />
        </mxCell>
        <mxCell id="Odf808U_Sn1sBOXG4N02-31" value="&lt;div style=&quot;color: rgb(187, 187, 187); font-family: consolas, &amp;quot;courier new&amp;quot;, monospace; font-size: 10px; line-height: 27px;&quot;&gt;&lt;div style=&quot;font-size: 10px;&quot;&gt;&lt;span style=&quot;background-color: rgb(0, 43, 54); color: rgb(38, 139, 210); font-size: 10px;&quot;&gt;tweets&lt;/span&gt;&lt;span style=&quot;background-color: rgb(0, 43, 54); font-size: 10px;&quot;&gt;&amp;nbsp;&lt;/span&gt;&lt;span style=&quot;background-color: rgb(0, 43, 54); color: rgb(133, 153, 0); font-size: 10px;&quot;&gt;=&lt;/span&gt;&lt;span style=&quot;background-color: rgb(0, 43, 54); font-size: 10px;&quot;&gt;&amp;nbsp;&lt;/span&gt;&lt;span style=&quot;background-color: rgb(0, 43, 54); color: rgb(203, 75, 22); font-size: 10px;&quot;&gt;tw&lt;/span&gt;&lt;span style=&quot;background-color: rgb(0, 43, 54); font-size: 10px;&quot;&gt;.&lt;/span&gt;&lt;span style=&quot;background-color: rgb(0, 43, 54); color: rgb(203, 75, 22); font-size: 10px;&quot;&gt;Cursor&lt;/span&gt;&lt;span style=&quot;background-color: rgb(0, 43, 54); font-size: 10px;&quot;&gt;(&lt;/span&gt;&lt;span style=&quot;color: rgb(38, 139, 210); background-color: rgb(0, 255, 0); font-size: 10px;&quot;&gt;api&lt;/span&gt;&lt;span style=&quot;background-color: rgb(0, 43, 54); font-size: 10px;&quot;&gt;.&lt;/span&gt;&lt;span style=&quot;background-color: rgb(0, 43, 54); color: rgb(38, 139, 210); font-size: 10px;&quot;&gt;search&lt;/span&gt;&lt;span style=&quot;background-color: rgb(0, 43, 54); font-size: 10px;&quot;&gt;,q&lt;/span&gt;&lt;span style=&quot;background-color: rgb(0, 43, 54); color: rgb(133, 153, 0); font-size: 10px;&quot;&gt;=&lt;/span&gt;&lt;span style=&quot;color: rgb(38, 139, 210); background-color: rgb(255, 128, 0); font-size: 10px;&quot;&gt;search_term&lt;/span&gt;&lt;span style=&quot;background-color: rgb(0, 43, 54); font-size: 10px;&quot;&gt;,lanng&lt;/span&gt;&lt;span style=&quot;background-color: rgb(0, 43, 54); color: rgb(133, 153, 0); font-size: 10px;&quot;&gt;=&lt;/span&gt;&lt;span style=&quot;background-color: rgb(0, 43, 54); color: rgb(42, 161, 152); font-size: 10px;&quot;&gt;&quot;en&quot;&lt;/span&gt;&lt;span style=&quot;background-color: rgb(0, 43, 54); font-size: 10px;&quot;&gt;,since&lt;/span&gt;&lt;span style=&quot;background-color: rgb(0, 43, 54); color: rgb(133, 153, 0); font-size: 10px;&quot;&gt;=&lt;/span&gt;&lt;span style=&quot;background-color: rgb(0, 43, 54); color: rgb(42, 161, 152); font-size: 10px;&quot;&gt;&#39;2018-11-01&#39;&lt;/span&gt;&lt;span style=&quot;background-color: rgb(0, 43, 54); font-size: 10px;&quot;&gt;).&lt;/span&gt;&lt;span style=&quot;background-color: rgb(0, 43, 54); color: rgb(38, 139, 210); font-size: 10px;&quot;&gt;items&lt;/span&gt;&lt;span style=&quot;background-color: rgb(0, 43, 54); font-size: 10px;&quot;&gt;(&lt;/span&gt;&lt;span style=&quot;background-color: rgb(0, 43, 54); color: rgb(211, 54, 130); font-size: 10px;&quot;&gt;1000&lt;/span&gt;&lt;span style=&quot;background-color: rgb(0, 43, 54); font-size: 10px;&quot;&gt;)&lt;/span&gt;&lt;/div&gt;&lt;/div&gt;" style="text;html=1;strokeColor=none;fillColor=none;align=center;verticalAlign=middle;whiteSpace=wrap;rounded=0;fontSize=10;" vertex="1" parent="1">
          <mxGeometry x="-1300" y="-530" width="490" height="20" as="geometry" />
        </mxCell>
        <mxCell id="Odf808U_Sn1sBOXG4N02-32" value="" style="endArrow=classic;html=1;fontSize=10;fontColor=#CC6600;exitX=0.109;exitY=0.074;exitDx=0;exitDy=0;exitPerimeter=0;" edge="1" parent="1" source="Odf808U_Sn1sBOXG4N02-31">
          <mxGeometry width="50" height="50" relative="1" as="geometry">
            <mxPoint x="-1360" y="-460" as="sourcePoint" />
            <mxPoint x="-1250" y="-580" as="targetPoint" />
          </mxGeometry>
        </mxCell>
        <mxCell id="Odf808U_Sn1sBOXG4N02-33" value="&lt;div style=&quot;color: rgb(187, 187, 187); background-color: rgb(0, 43, 54); font-family: consolas, &amp;quot;courier new&amp;quot;, monospace; font-weight: normal; font-size: 20px; line-height: 27px;&quot;&gt;&lt;div&gt;&lt;span style=&quot;color: #268bd2&quot;&gt;print&lt;/span&gt;&lt;span style=&quot;color: #bbbbbb&quot;&gt;(&lt;/span&gt;&lt;span style=&quot;color: #268bd2&quot;&gt;all_tweets&lt;/span&gt;&lt;span style=&quot;color: #bbbbbb&quot;&gt;[&lt;/span&gt;&lt;span style=&quot;color: #d33682&quot;&gt;0&lt;/span&gt;&lt;span style=&quot;color: #bbbbbb&quot;&gt;:&lt;/span&gt;&lt;span style=&quot;color: #d33682&quot;&gt;5&lt;/span&gt;&lt;span style=&quot;color: #bbbbbb&quot;&gt;])&lt;/span&gt;&lt;/div&gt;&lt;/div&gt;" style="text;whiteSpace=wrap;html=1;fontSize=10;fontColor=#CC6600;" vertex="1" parent="1">
          <mxGeometry x="-1620" y="-400" width="270" height="40" as="geometry" />
        </mxCell>
        <mxCell id="Odf808U_Sn1sBOXG4N02-34" value="" style="rounded=0;whiteSpace=wrap;html=1;fontSize=10;fontColor=#CC6600;verticalAlign=middle;fillColor=none;strokeWidth=2;" vertex="1" parent="1">
          <mxGeometry x="-1650" y="-1160" width="660" height="130" as="geometry" />
        </mxCell>
        <mxCell id="Odf808U_Sn1sBOXG4N02-35" value="" style="rounded=0;whiteSpace=wrap;html=1;fontSize=10;fontColor=#CC6600;verticalAlign=middle;fillColor=none;strokeWidth=2;" vertex="1" parent="1">
          <mxGeometry x="-1650" y="-990" width="960" height="190" as="geometry" />
        </mxCell>
        <mxCell id="Odf808U_Sn1sBOXG4N02-37" value="" style="rounded=0;whiteSpace=wrap;html=1;fontSize=10;fontColor=#CC6600;strokeWidth=2;fillColor=none;verticalAlign=middle;" vertex="1" parent="1">
          <mxGeometry x="-1630" y="-410" width="270" height="60" as="geometry" />
        </mxCell>
        <mxCell id="Odf808U_Sn1sBOXG4N02-41" value="&lt;div style=&quot;color: rgb(187, 187, 187); background-color: rgb(0, 43, 54); font-family: consolas, &amp;quot;courier new&amp;quot;, monospace; font-weight: normal; font-size: 11px; line-height: 27px;&quot;&gt;&lt;div style=&quot;font-size: 11px;&quot;&gt;&lt;span style=&quot;color: rgb(38, 139, 210); font-size: 11px;&quot;&gt;all_tweets&lt;/span&gt;&lt;span style=&quot;color: rgb(187, 187, 187); font-size: 11px;&quot;&gt;&amp;nbsp;&lt;/span&gt;&lt;span style=&quot;color: rgb(133, 153, 0); font-size: 11px;&quot;&gt;=&lt;/span&gt;&lt;span style=&quot;color: rgb(187, 187, 187); font-size: 11px;&quot;&gt;&amp;nbsp;[&lt;/span&gt;&lt;span style=&quot;color: rgb(38, 139, 210); font-size: 11px;&quot;&gt;tweet&lt;/span&gt;&lt;span style=&quot;color: rgb(187, 187, 187); font-size: 11px;&quot;&gt;.text&amp;nbsp;&lt;/span&gt;&lt;span style=&quot;color: rgb(133, 153, 0); font-size: 11px;&quot;&gt;for&lt;/span&gt;&lt;span style=&quot;color: rgb(187, 187, 187); font-size: 11px;&quot;&gt;&amp;nbsp;&lt;/span&gt;&lt;span style=&quot;color: rgb(38, 139, 210); font-size: 11px;&quot;&gt;tweet&lt;/span&gt;&lt;span style=&quot;color: rgb(187, 187, 187); font-size: 11px;&quot;&gt;&amp;nbsp;&lt;/span&gt;&lt;span style=&quot;color: rgb(133, 153, 0); font-size: 11px;&quot;&gt;in&lt;/span&gt;&lt;span style=&quot;color: rgb(187, 187, 187); font-size: 11px;&quot;&gt;&amp;nbsp;&lt;/span&gt;&lt;span style=&quot;color: rgb(38, 139, 210); font-size: 11px;&quot;&gt;tweets&lt;/span&gt;&lt;span style=&quot;color: rgb(187, 187, 187); font-size: 11px;&quot;&gt;]&lt;/span&gt;&lt;/div&gt;&lt;/div&gt;" style="text;whiteSpace=wrap;html=1;fontSize=11;fontColor=#CC6600;" vertex="1" parent="1">
          <mxGeometry x="-1510" y="-300" width="280" height="40" as="geometry" />
        </mxCell>
        <mxCell id="Odf808U_Sn1sBOXG4N02-42" value="" style="endArrow=classic;html=1;fontSize=11;fontColor=#CC6600;entryX=0.5;entryY=1;entryDx=0;entryDy=0;" edge="1" parent="1" target="Odf808U_Sn1sBOXG4N02-37">
          <mxGeometry width="50" height="50" relative="1" as="geometry">
            <mxPoint x="-1480" y="-290" as="sourcePoint" />
            <mxPoint x="-1430" y="-340" as="targetPoint" />
          </mxGeometry>
        </mxCell>
        <mxCell id="Odf808U_Sn1sBOXG4N02-43" value="" style="rounded=0;whiteSpace=wrap;html=1;fontSize=11;fontColor=#CC6600;strokeWidth=2;fillColor=none;verticalAlign=middle;" vertex="1" parent="1">
          <mxGeometry x="-1640" y="-630" width="440" height="60" as="geometry" />
        </mxCell>
      </root>
    </mxGraphModel>
  </diagram>
  <diagram id="UZGDad_oXvDmZA_ru01C" name="Page-2">
    <mxGraphModel dx="2303" dy="1400" grid="1" gridSize="10" guides="1" tooltips="1" connect="1" arrows="1" fold="1" page="1" pageScale="1" pageWidth="827" pageHeight="1169" math="0" shadow="0">
      <root>
        <mxCell id="qRwbOi6JKW0CzENVTN5z-0" />
        <mxCell id="qRwbOi6JKW0CzENVTN5z-1" parent="qRwbOi6JKW0CzENVTN5z-0" />
      </root>
    </mxGraphModel>
  </diagram>
</mxfile>
